<svg width="29" height="29" viewBox="0 0 29 29" fill="none" xmlns="http://www.w3.org/2000/svg">
<path d="M28.8291 12.2654L28.68 11.6447H14.9263V17.3553H23.1439C22.2907 21.3299 18.3317 23.422 15.0978 23.422C12.7448 23.422 10.2645 22.451 8.6228 20.8904C7.75665 20.0538 7.06719 19.0578 6.59391 17.9595C6.12064 16.8612 5.87282 15.682 5.86466 14.4896C5.86466 12.0842 6.9666 9.6781 8.57001 8.0954C10.1734 6.5127 12.595 5.62717 15.0028 5.62717C17.7603 5.62717 19.7365 7.06357 20.4755 7.71866L24.6121 3.68196C23.3986 2.63589 20.0651 0 14.8695 0C10.861 0 7.01741 1.50632 4.2078 4.25355C1.43515 6.95871 0 10.8705 0 14.5C0 18.1295 1.35795 21.8458 4.04482 24.5723C6.91579 27.4801 10.9817 29 15.1684 29C18.9777 29 22.5883 27.5358 25.1617 24.8792C27.6915 22.264 29 18.6454 29 14.8521C29 13.2552 28.8364 12.3069 28.8291 12.2654Z" fill="black"/>
</svg>
