<svg width="28" height="20" viewBox="0 0 28 20" fill="none" xmlns="http://www.w3.org/2000/svg">
<path d="M5.5 18.4999C5.59018 18.5 5.68312 18.5 5.77896 18.5H14M5.5 18.4999C4.09995 18.4989 3.36556 18.4813 2.79671 18.1915C2.26359 17.9198 1.83046 17.4853 1.55881 16.9521C1.25 16.3461 1.25 15.5538 1.25 13.9669V6.03361C1.25 4.44679 1.25 3.6528 1.55881 3.04671C1.83046 2.51359 2.26359 2.08046 2.79671 1.80881C3.4028 1.5 4.19679 1.5 5.78361 1.5H22.2169C23.8038 1.5 24.5961 1.5 25.2021 1.80881C25.7353 2.08046 26.1698 2.51359 26.4415 3.04671C26.75 3.6522 26.75 4.44524 26.75 6.02896V13.971C26.75 15.5548 26.75 16.3467 26.4415 16.9521C26.1698 17.4853 25.7353 17.9198 25.2021 18.1915C24.5967 18.5 23.8048 18.5 22.221 18.5H14M5.5 18.4999C5.50006 16.9352 7.40282 15.6667 9.75 15.6667C12.0972 15.6667 14 16.9352 14 18.5M5.5 18.4999C5.5 18.5 5.5 18.4999 5.5 18.4999ZM22.5 12.8333H16.8333M22.5 8.58333H18.25M9.75 11.4167C8.18519 11.4167 6.91667 10.1481 6.91667 8.58333C6.91667 7.01853 8.18519 5.75 9.75 5.75C11.3148 5.75 12.5833 7.01853 12.5833 8.58333C12.5833 10.1481 11.3148 11.4167 9.75 11.4167Z" stroke="#060B26" stroke-width="2" stroke-linecap="round" stroke-linejoin="round"/>
</svg>
