<svg width="27" height="22" viewBox="0 0 27 22" fill="none" xmlns="http://www.w3.org/2000/svg">
<path d="M2.35188 2.49998L10.5237 9.03402L10.5264 9.03642C11.4338 9.74097 11.8877 10.0934 12.3849 10.2296C12.8244 10.35 13.2864 10.35 13.7259 10.2296C14.2235 10.0933 14.6788 9.73982 15.5878 9.03402C15.5878 9.03402 20.8293 4.77506 23.7593 2.49998M1.01392 16.3836V5.61692C1.01392 4.03011 1.01392 3.23611 1.30557 2.63003C1.56212 2.0969 1.97119 1.66377 2.4747 1.39213C3.04711 1.08331 3.797 1.08331 5.29566 1.08331H20.816C22.3147 1.08331 23.063 1.08331 23.6354 1.39213C24.1389 1.66377 24.5493 2.0969 24.8059 2.63003C25.0972 3.23552 25.0972 4.02855 25.0972 5.61227V16.3884C25.0972 17.9721 25.0972 18.764 24.8059 19.3695C24.5493 19.9026 24.1389 20.3365 23.6354 20.6081C23.0635 20.9166 22.3156 20.9166 20.8199 20.9166H5.29126C3.79553 20.9166 3.04655 20.9166 2.4747 20.6081C1.97119 20.3365 1.56212 19.9026 1.30557 19.3695C1.01392 18.7634 1.01392 17.9704 1.01392 16.3836Z" stroke="#060B26" stroke-width="2" stroke-linecap="round" stroke-linejoin="round"/>
</svg>
